<svg id="Komponente_18_5" data-name="Komponente 18 – 5" xmlns="http://www.w3.org/2000/svg" width="60" height="60" viewBox="0 0 60 60">
  <g id="Ellipse_1" data-name="Ellipse 1" fill="none" stroke="#000" stroke-width="2">
    <circle cx="30" cy="30" r="30" stroke="none"/>
    <circle cx="30" cy="30" r="29" fill="none"/>
  </g>
  <g id="Rechteck_6" data-name="Rechteck 6" transform="translate(15 28)" fill="none" stroke="#000" stroke-width="2">
    <path d="M0,0H30a0,0,0,0,1,0,0V8A12,12,0,0,1,18,20H12A12,12,0,0,1,0,8V0A0,0,0,0,1,0,0Z" stroke="none"/>
    <path d="M2,1H28a1,1,0,0,1,1,1V8A11,11,0,0,1,18,19H12A11,11,0,0,1,1,8V2A1,1,0,0,1,2,1Z" fill="none"/>
  </g>
  <g id="Rechteck_7" data-name="Rechteck 7" transform="translate(13 23)" fill="none" stroke="#000" stroke-width="2">
    <rect width="34" height="7" rx="2" stroke="none"/>
    <rect x="1" y="1" width="32" height="5" rx="1" fill="none"/>
  </g>
  <line id="Linie_4" data-name="Linie 4" y2="11" transform="translate(37.5 12.5)" fill="none" stroke="#000" stroke-width="3"/>
  <line id="Linie_5" data-name="Linie 5" y2="11" transform="translate(23.5 12.5)" fill="none" stroke="#000" stroke-width="3"/>
</svg>
