<svg id="Komponente_17_1" data-name="Komponente 17 – 1" xmlns="http://www.w3.org/2000/svg" width="60" height="60" viewBox="0 0 60 60">
  <g id="Ellipse_2" data-name="Ellipse 2" fill="none" stroke="#000" stroke-width="2">
    <circle cx="30" cy="30" r="30" stroke="none"/>
    <circle cx="30" cy="30" r="29" fill="none"/>
  </g>
  <g id="Rechteck_8" data-name="Rechteck 8" transform="translate(15 14)" fill="none" stroke="#000" stroke-width="2">
    <rect width="30" height="32" rx="3" stroke="none"/>
    <rect x="1" y="1" width="28" height="30" rx="2" fill="none"/>
  </g>
  <line id="Linie_6" data-name="Linie 6" x2="29" transform="translate(15.5 21.5)" fill="none" stroke="#000" stroke-width="2"/>
  <g id="Ellipse_3" data-name="Ellipse 3" transform="translate(38 17)" fill="#fff" stroke="#000" stroke-width="2">
    <circle cx="1.5" cy="1.5" r="1.5" stroke="none"/>
    <circle cx="1.5" cy="1.5" r="0.5" fill="none"/>
  </g>
  <g id="Ellipse_4" data-name="Ellipse 4" transform="translate(33 17)" fill="#fff" stroke="#000" stroke-width="2">
    <circle cx="1.5" cy="1.5" r="1.5" stroke="none"/>
    <circle cx="1.5" cy="1.5" r="0.5" fill="none"/>
  </g>
  <g id="Ellipse_5" data-name="Ellipse 5" transform="translate(22 25)" fill="none" stroke="#000" stroke-width="2">
    <circle cx="8" cy="8" r="8" stroke="none"/>
    <circle cx="8" cy="8" r="7" fill="none"/>
  </g>
  <path id="Pfad_1" data-name="Pfad 1" d="M0,3A20.188,20.188,0,0,0,5.283,3c2.1-.422,2.675-1.646,5.083-2.4A13.868,13.868,0,0,1,14.918,0" transform="translate(22.5 30.5)" fill="none" stroke="#000" stroke-width="2"/>
</svg>
